<svg width="201" height="31" viewBox="0 0 201 31" fill="none" xmlns="http://www.w3.org/2000/svg">
<path d="M104.366 2.99136C108.308 6.25694 108.333 13.1147 104.862 16.7319C100.797 20.9521 94.0536 19.897 88.7484 19.9724C88.1039 19.6961 88.3766 18.8922 88.3766 18.3647C88.451 12.8132 88.4014 7.23662 88.3766 1.68513C88.3766 1.30833 88.1535 0.680333 88.6493 0.529614C91.4258 0.529614 94.4255 0.303535 97.202 0.454254C99.6067 0.604973 102.458 1.45905 104.342 3.01648L104.366 2.99136ZM99.929 7.76413C99.4827 7.2115 99.1357 6.91006 98.4663 6.63374C97.797 6.35742 96.5823 6.15646 95.8881 6.15646C95.5411 6.15646 94.8965 6.30718 94.8469 6.73422C94.9709 8.89453 94.6982 11.1804 94.8469 13.2905C94.8965 14.019 94.8965 14.1697 95.6402 14.2199C98.7886 14.4711 101.416 12.5369 100.648 9.09548C100.524 8.49261 100.276 8.19117 99.929 7.76413Z" fill="#279801"/>
<path d="M73.7254 0.454254C74.0725 0.655213 73.5519 1.83585 73.4775 2.13728C73.1552 3.36816 72.8577 4.59903 72.5354 5.80478C72.4363 6.15646 71.8909 7.28685 72.5354 7.36221C74.0477 7.23661 75.8326 7.53805 77.2952 7.36221C77.7167 7.31197 77.9646 7.03566 78.1133 6.63374C78.6835 5.00095 78.9562 3.06672 79.4272 1.40881C79.576 0.856172 79.6255 0.529614 80.2701 0.454254C81.6584 0.278415 83.3193 0.630093 84.7324 0.404014C85.0795 0.554733 85.8728 0.328655 86.1207 0.554733C86.4429 0.856172 85.9967 1.55953 85.8975 1.88609C84.3605 7.18638 83.0218 12.5871 81.6336 17.9377C81.5344 18.3145 81.3361 19.3193 81.1873 19.5956C81.0386 19.8719 80.8155 19.9975 80.4932 20.0226C78.7827 20.1985 76.8242 19.897 75.0889 20.0226C74.8905 20.0226 74.717 19.9473 74.6674 19.7463C74.5683 19.269 75.0641 18.1386 75.2128 17.6111C75.5847 16.2546 75.8326 14.873 76.3036 13.5417C76.4276 12.8635 75.7086 13.1147 75.3368 13.0895C74.0725 13.0393 72.5354 12.9388 71.2959 13.0393C70.9489 13.0644 70.7257 13.1398 70.5026 13.391C70.0068 15.1494 69.5358 16.9329 69.0896 18.6913C68.8912 19.4449 69.0896 19.9473 68.0979 20.0226C66.4122 20.1733 64.5033 19.897 62.7928 20.0226C62.173 19.9724 62.2722 19.5202 62.3713 19.0681C62.5201 18.3647 62.8423 17.4102 63.0407 16.6566C64.4537 11.3563 65.966 6.10622 67.3046 0.780812C67.4782 0.504494 67.7261 0.454254 68.0484 0.429134C69.5358 0.303535 71.6678 0.328655 73.18 0.378894C73.2544 0.378894 73.775 0.429134 73.7998 0.454254H73.7254Z" fill="#01017C"/>
<path d="M133.966 5.7043C133.619 6.13134 133.297 6.60862 132.975 7.06078C132.157 7.58829 131.512 6.7091 130.818 6.35742C128.488 5.20191 125.488 5.72942 124.372 8.29165C122.736 12.0345 125.835 15.7522 129.752 14.8731C130.173 14.7726 130.471 14.7223 130.669 14.3204C130.868 13.9185 130.892 12.9891 130.372 12.763C129.702 12.4867 128.488 12.8383 127.719 12.7379C127.422 12.6876 127.298 12.3862 127.273 12.1099C127.223 11.6075 127.199 9.17084 127.323 8.76893C127.422 8.44237 127.595 8.36701 127.893 8.34189C129.207 8.24141 130.57 8.41725 131.884 8.41725C133.024 8.41725 134.189 8.36701 135.33 8.36701C135.875 8.36701 136.644 8.06557 136.793 8.86941C136.619 11.507 137.016 14.446 136.793 17.0585C136.743 17.5106 136.594 17.7367 136.222 17.9879C131.091 21.5549 122.736 21.4545 119.018 15.903C115.621 10.879 117.53 3.94591 122.835 1.23297C126.728 -0.751499 132.132 -0.198862 135.578 2.46384C136.619 3.26768 135.454 3.94591 134.933 4.57391C134.611 4.95071 134.289 5.35263 133.966 5.72942V5.7043Z" fill="#279801"/>
<path d="M36.5396 13.8934C37.8535 12.8132 38.1014 10.7032 38.5476 9.14572C39.1674 6.93518 39.7376 4.72463 40.3325 2.51408C40.4317 2.13728 40.6548 1.05713 40.8284 0.780812C41.0019 0.479374 41.2994 0.429134 41.5969 0.404014C43.357 0.253295 45.2906 0.504494 47.0756 0.404014C47.3235 0.454254 47.4722 0.630093 47.4474 0.906411C47.3483 1.58465 46.902 2.68992 46.7037 3.4184C45.9848 6.13134 45.3402 8.86941 44.5717 11.5572C44.1255 13.1147 43.7041 14.3204 42.9603 15.7522C41.7208 18.1135 39.2418 19.6961 36.614 20.098C32.35 20.7511 26.5738 20.1482 25.5574 15.0489C24.9872 12.2606 25.9292 10.0752 26.5986 7.48781C27.1192 5.47822 27.5158 3.19232 28.1604 1.23297C28.3587 0.579853 28.5075 0.479374 29.2016 0.404014C30.9369 0.253295 32.8706 0.529614 34.6307 0.404014C34.8786 0.429134 35.0274 0.630093 35.0026 0.881291C34.953 1.25809 34.6803 1.81073 34.5811 2.21264C33.9366 4.54879 33.3664 6.91006 32.7466 9.27132C32.3748 10.678 31.5567 12.6374 32.7962 13.8431C33.8126 14.8479 35.5232 14.7475 36.614 13.8683L36.5396 13.8934Z" fill="#01017C"/>
<path d="M170.557 0.328655C172.317 0.429134 174.301 0.152816 176.011 0.328655C176.209 0.328655 176.532 0.429134 176.656 0.579853C178.242 4.49855 179.953 8.36701 181.564 12.2857C182.432 14.3455 183.2 16.6063 184.118 18.6159C184.316 19.0429 185.035 19.6961 184.291 19.9724C183.696 20.1985 182.333 19.9724 181.639 19.9724C181.093 19.9724 180.573 20.0226 180.027 20.0477C179.457 20.0477 177.87 20.1733 177.523 19.7463C177.325 19.4951 177.251 19.0932 177.127 18.8169C176.928 18.3145 176.755 17.5106 176.185 17.385H170.508C169.367 17.4604 169.566 19.2188 168.946 19.7965C168.748 19.9724 168.351 20.0477 168.078 20.0729C166.863 20.1733 165.401 19.9975 164.136 19.9975C163.69 19.9975 162.054 20.3492 162.079 19.6207C162.079 19.2941 162.699 18.214 162.872 17.8121C165.128 12.3862 167.235 6.8347 169.64 1.48417C169.838 1.05713 170.012 0.529614 170.532 0.404014L170.557 0.328655ZM174.97 12.763C175.069 12.0094 174.598 11.3814 174.35 10.7283C174.127 10.1505 173.954 9.44716 173.73 8.89453C173.582 8.49261 173.359 8.26653 173.011 8.66845C172.739 8.96989 172.516 10.1254 172.342 10.5776C172.169 11.1051 171.524 12.135 171.722 12.6876C171.822 12.9639 172.317 12.7881 172.516 12.7881C173.011 12.7881 173.507 12.7881 174.003 12.7881C174.325 12.7881 174.623 12.9137 174.97 12.7881V12.763Z" fill="#279801"/>
<path d="M62.5449 5.65406C62.297 5.9555 61.3301 7.23662 61.0822 7.33709C60.7104 7.46269 60.1898 7.03566 59.8675 6.8347C58.4792 5.98062 57.2149 5.37775 55.5291 5.27727C55.2564 5.27727 54.24 5.50334 54.1409 5.72942C53.9178 6.23182 54.2152 6.5835 54.6367 6.80958C57.1901 8.14093 60.8839 8.36701 62.173 11.507C62.4953 12.3108 62.6192 14.019 62.3961 14.8731C62.3217 15.1745 61.9747 15.9783 61.8259 16.2798C60.2641 19.47 56.2729 20.4748 53.0005 20.2989C49.9265 20.1482 47.1499 19.1434 44.6709 17.3599C43.9024 16.8073 44.5469 16.2044 44.9684 15.7271C45.3898 15.2498 45.836 14.7977 46.2327 14.3204C46.5054 13.9939 47.3731 12.6374 47.7201 12.562C48.2159 12.4615 48.6374 12.7881 48.9596 13.0895C49.0836 13.2151 49.0092 13.3407 49.3067 13.4663C50.7694 14.1195 52.5047 15.0991 54.1657 15.1242C54.6615 15.1242 55.901 14.873 55.7523 14.1948C55.6531 13.6673 55.1325 13.6171 54.8102 13.2905C51.0668 11.9089 45.9848 10.452 47.5714 5.22703C48.5878 1.78561 52.3064 0.0774561 55.6283 0.00209656C58.2065 -0.0481431 61.9995 0.805932 64.0571 2.4136C65.0983 3.24256 63.9827 3.84543 63.4125 4.52367C63.115 4.87535 62.8176 5.27727 62.5201 5.62894L62.5449 5.65406Z" fill="#01017C"/>
<path d="M24.2931 10.7785C22.8056 13.19 19.6572 14.5465 16.9055 14.7223C15.8147 14.7977 14.5008 14.5967 13.4596 14.7223C12.7159 14.8228 12.8646 15.3754 12.6663 15.8276C12.6415 15.903 12.6167 15.9532 12.5671 16.1039C12.5176 16.2546 12.5176 16.4054 12.468 16.6063C12.3936 17.159 12.0713 17.9879 11.9226 18.5657C11.8482 18.9173 11.8234 19.6709 11.5259 19.8468C11.3772 19.9473 10.931 19.9975 10.7326 20.0226C9.02209 20.1482 7.13801 19.9221 5.37789 20.0226C5.20435 20.0226 5.00603 20.0226 5.00603 19.9724C5.00603 19.8468 5.00603 19.6458 5.05561 19.4197C5.10519 19.0681 5.42747 18.415 5.55142 17.9879C6.3943 14.9735 7.03885 11.8838 7.98089 8.89452C8.20401 8.16605 7.48508 7.88973 6.9149 7.81437C6.19597 7.71389 5.20435 7.63853 4.48543 7.63853C3.96483 7.63853 2.75009 7.63853 2.30386 7.86461C1.75847 8.16605 1.36182 9.47228 0.618103 8.49261C-0.323937 7.23661 -0.199984 5.98062 1.06433 5.05119C2.42781 4.04639 5.55142 4.24735 7.21239 4.29759C7.85694 4.29759 8.57586 4.54879 9.19563 4.22223L10.1129 0.730572C10.1872 0.579853 10.4104 0.630093 10.5591 0.529613C15.0958 0.805932 22.7065 -0.902218 25.0616 4.37295C25.8549 6.15646 25.3095 9.22108 24.2931 10.8539V10.7785ZM14.2529 3.11696C13.8562 2.84064 13.4348 2.61456 13.063 2.31312C12.6911 2.01169 12.0713 1.00689 11.7243 1.73537L12.7655 4.12175C12.7655 4.49855 12.939 5.07631 12.3936 5.02607C11.9474 5.00095 11.2037 4.67439 10.7079 4.62415C10.336 4.57391 9.76581 4.54879 9.41874 4.62415C8.94772 4.72463 8.94772 5.22703 8.82377 5.65406C8.72461 5.98062 8.72461 6.23182 8.62545 6.55838C8.55107 6.8347 8.40233 7.06078 8.35275 7.36221C8.32796 7.53805 8.25359 7.96509 8.35275 8.04045C9.61707 8.29165 10.8566 8.56797 12.0961 8.89452C12.5671 9.4974 11.873 9.97468 11.5755 10.4017C11.2037 10.9544 10.3112 12.2103 11.7491 11.7331C14.3521 10.8288 16.9799 9.89932 19.6077 9.04524C20.0787 8.89453 21.4669 8.79405 20.9463 8.01533C20.748 7.71389 19.9299 7.31197 19.6077 7.0859C17.7979 5.80478 15.9882 4.44831 14.1785 3.14208L14.2529 3.11696Z" fill="#01017C"/>
<path d="M159.005 6.18158C159.005 6.18158 158.807 6.65886 158.807 6.78446C158.856 10.6278 158.732 14.446 158.807 18.2894C158.807 18.9425 159.203 19.9724 158.187 19.9975C156.451 19.8719 154.543 20.1482 152.832 19.9975C151.865 19.9221 152.262 19.0429 152.262 18.3396C152.336 14.4963 152.212 10.6278 152.262 6.78446C152.212 6.25694 152.163 6.13134 151.617 6.05598C150.229 5.98062 148.469 6.28206 147.105 6.10622C146.287 6.00574 146.535 5.12655 146.535 4.57391C146.535 3.39328 146.436 2.0368 146.535 0.906411C146.56 0.479374 146.709 0.504494 147.105 0.454254C152.535 0.604973 157.988 0.303535 163.418 0.404014C163.591 0.404014 164.136 0.454254 164.26 0.504494C164.508 0.604973 164.558 1.03201 164.558 1.28321C164.558 2.18752 164.409 3.11696 164.434 4.04639C164.434 4.52367 164.707 5.55358 164.384 5.90526C164.285 6.00574 163.963 6.10622 163.814 6.10622C162.798 6.23182 161.31 6.10622 160.244 6.10622C159.972 6.10622 159.203 5.9555 158.98 6.18158H159.005Z" fill="#279801"/>
<path d="M189.77 0.454254C190.241 0.454254 191.406 0.378894 191.778 0.604973C192.15 0.831052 191.877 1.98657 191.852 2.38848C191.753 6.10622 191.927 9.82396 191.852 13.5417C191.902 14.2702 192.026 14.446 192.77 14.4711C193.067 14.4711 193.29 14.3958 193.538 14.3958C195.918 14.3958 198.323 14.3958 200.702 14.4209C200.926 14.5214 201 15.1494 201 15.3754C201 15.5513 200.926 15.702 200.926 15.8527C200.926 16.9329 201.025 18.3647 200.926 19.4197C200.876 19.7965 200.727 19.897 200.355 19.9473H186.2C185.555 19.9473 185.432 19.5956 185.407 19.0178C185.407 18.9173 185.456 18.7917 185.456 18.6661C185.382 12.763 185.481 6.8347 185.456 0.906411C185.506 0.554733 185.779 0.529614 186.076 0.504494C187.167 0.404014 188.605 0.479374 189.72 0.454254H189.77Z" fill="#279801"/>
<path d="M145.097 19.7965C145.097 19.7965 144.577 19.9724 144.428 19.9975C142.742 20.1482 140.833 19.8719 139.123 19.9975C138.652 19.9473 138.553 19.6207 138.553 19.1937C138.627 13.391 138.701 7.53805 138.627 1.73537C138.627 0.956651 138.305 0.529614 139.371 0.429134C141.081 0.303535 142.941 0.529614 144.676 0.429134C145.42 0.429134 145.246 1.05713 145.246 1.60977C145.271 7.2115 145.097 12.8886 145.172 18.5406C145.172 18.8671 145.37 19.5705 145.097 19.8217V19.7965Z" fill="#279801"/>
<path d="M115.473 19.7965C115.349 19.9221 114.927 19.9724 114.754 19.9975C113.465 20.098 111.11 20.098 109.82 19.9975C108.854 19.9221 109.126 19.3444 109.151 18.641C109.201 12.8886 109.151 7.16126 109.151 1.40881C109.151 1.15761 109.002 0.705453 109.3 0.554733C109.449 0.479374 110.044 0.429134 110.242 0.404014C111.853 0.303535 113.564 0.479374 115.175 0.404014C115.77 0.554733 115.621 1.13249 115.621 1.58465C115.696 7.58829 115.597 13.5668 115.621 19.5705C115.597 19.6458 115.547 19.7212 115.497 19.7714L115.473 19.7965Z" fill="#279801"/>
<path d="M85.6496 27.7595C85.5505 28.0359 86.0215 27.9354 86.0711 28.1112C86.1454 28.3875 85.9223 28.6639 85.8232 28.9151C85.0547 28.9151 84.2614 28.9904 83.4681 28.9904C57.9338 29.116 32.5483 28.9151 6.98927 29.0407C6.46867 29.0407 4.63417 29.116 4.31189 28.7895C4.06399 28.5383 4.26231 28.0359 4.53501 27.86C4.75812 27.7093 5.27872 27.6339 5.57621 27.6339C31.5815 27.5586 57.6115 27.8098 83.6168 27.7093C84.3605 27.7093 84.9555 27.7344 85.6744 27.7595H85.6496Z" fill="#279801"/>
<path d="M85.8232 28.9151C85.9223 28.6639 86.1207 28.3875 86.0711 28.1112C86.0215 27.9354 85.5505 28.0359 85.6496 27.7595C85.9223 27.7595 86.1454 27.6842 86.3933 27.6842C104.838 27.7595 123.306 27.6088 141.726 27.7344C142.172 27.8851 142.395 28.7895 141.825 28.8899C123.182 29.0909 104.466 28.8648 85.8232 28.8899V28.9151Z" fill="#01017C"/>
<path d="M149.981 30.4474C149.857 30.5981 149.634 30.8744 149.485 30.9246C149.312 31 149.113 31.0754 149.014 30.8493C149.014 29.6184 149.014 28.3875 149.312 27.1818C149.312 26.9306 149.138 26.8552 148.915 26.8552C148.841 26.8552 148.543 27.2823 148.494 27.3827C147.948 28.1866 147.081 29.6184 146.436 30.2966C146.114 30.6232 145.593 30.9749 145.444 30.3218C145.544 29.116 145.147 27.5837 145.444 26.4533C145.519 26.2021 145.866 25.4234 145.742 25.2476C145.618 25.0717 145.023 25.2475 144.899 25.4234C144.725 25.6495 144.602 26.1519 144.577 26.4282C144.577 26.5538 144.626 26.6543 144.626 26.7799C144.602 27.6591 143.61 27.4581 143.56 26.7296C143.511 26.1267 143.684 25.7751 144.031 25.348C144.478 24.7954 145.395 24.2176 146.089 24.0669C146.262 24.0418 146.857 23.9413 147.031 23.9413C148.047 23.9413 147.056 25.2224 146.907 25.5741C146.833 25.7499 146.709 26.1016 146.659 26.3026C146.585 26.6543 146.386 27.8349 146.461 28.1363C146.535 28.4378 147.031 28.2871 147.155 28.0861C147.824 27.0311 148.518 25.9509 149.287 24.9712C149.411 24.8205 149.535 24.5442 149.684 24.3935C149.857 24.2176 150.403 23.8157 150.626 23.9664C150.874 24.1423 150.403 25.2476 150.378 25.5239C150.353 25.7499 150.378 26.0011 150.378 26.2523C150.328 26.8301 150.155 27.6842 150.204 28.2368C150.204 28.5634 150.378 28.6387 150.7 28.5383C150.923 28.488 151.072 27.9354 151.196 27.7595C151.716 26.9557 152.931 25.4987 152.956 24.5442C152.956 24.2428 152.733 23.0872 153.105 23.0119C153.65 22.9114 154.022 23.2128 154.096 23.7655C154.22 24.9461 153.204 26.4533 152.559 27.3827C151.816 28.4127 150.874 29.5682 150.031 30.5227L149.981 30.4474Z" fill="#279801"/>
<path d="M159.972 28.8899C158.906 27.7595 159.749 25.8755 160.765 24.9964C160.963 24.8205 161.98 24.1423 162.178 24.092C163.269 23.8157 164.087 23.6399 165.153 24.092C165.649 24.293 165.897 24.6196 165.996 25.1471C166.095 25.6746 166.045 25.5741 165.872 26.0011C165.723 26.3528 165.748 26.2775 165.55 26.5789C165.178 27.1818 165.822 27.4079 165.921 27.9856C166.268 29.7189 164.583 30.7237 163.12 30.8242C162.798 30.8242 162.5 30.7739 162.228 30.7739C161.831 30.7739 161.013 30.9246 160.641 30.7237C160.12 30.4474 160.988 30.0203 161.211 29.7942C161.533 29.4174 161.732 28.9653 161.831 28.488C162.004 27.7344 162.228 26.9306 162.302 26.1267C162.352 25.7248 162.525 25.0968 161.881 25.2978C161.236 25.4987 160.294 26.8552 160.418 27.5083C160.492 27.9354 161.509 29.0658 160.79 29.2918C160.344 29.4174 160.17 29.1914 159.922 28.9151L159.972 28.8899ZM164.731 24.9712C164.731 24.9712 164.434 24.72 164.36 24.72C163.839 24.6196 163.765 24.921 163.69 25.348C163.641 25.6243 163.541 26.6543 163.839 26.7547C163.938 26.7799 164.335 26.5287 164.434 26.4533C164.508 26.4031 164.831 26.0263 164.855 25.976C164.955 25.75 164.905 25.1722 164.756 24.9712H164.731ZM162.723 29.945C163.715 30.372 164.607 29.2165 164.632 28.2871C164.632 27.7595 164.013 27.5083 163.566 27.6842C163.07 27.8851 163.219 28.689 163.07 29.116C163.046 29.1914 162.947 29.2416 162.922 29.317C162.847 29.4928 162.798 29.744 162.723 29.945Z" fill="#01017C"/>
<path d="M200.405 24.9461C200.008 25.9509 199.909 27.0311 199.636 28.061C199.562 28.3122 199.314 28.7894 199.314 28.9904C199.289 29.2918 199.76 29.6435 199.661 30.2464C199.587 30.7237 198.719 30.8242 198.447 30.4474C198.323 30.2715 198.323 29.8194 198.397 29.6184C198.496 29.4174 198.893 29.2918 198.942 29.0407C198.992 28.8146 198.868 28.488 198.893 28.2117C198.942 27.1818 199.289 25.9509 199.314 24.8959C199.314 23.9413 198.67 24.6196 198.223 24.7703C197.901 24.8708 197.505 24.8708 197.157 25.0215C197.009 25.0717 196.538 25.3731 196.488 25.4987C196.364 25.7248 196.414 26.0263 196.364 26.2272C196.116 27.2571 195.868 28.3624 195.695 29.4174C195.546 30.2464 196.315 29.945 196.686 30.2213C197.108 30.573 196.067 30.7488 195.844 30.7488C195.348 30.7488 194.43 30.7488 193.959 30.7488C193.761 30.7488 193.488 30.7488 193.389 30.573C193.166 30.2213 193.662 30.171 193.86 30.0203C194.728 29.3421 194.902 27.2571 195.199 26.2021C195.348 25.6997 195.868 24.9712 194.926 24.9461C194.43 24.9461 193.612 25.2476 193.315 25.6746C192.844 26.4031 193.687 27.1818 193.315 27.7093C193.117 28.0107 192.323 27.7847 192.15 27.433C191.58 26.2523 192.447 25.0466 193.364 24.3935C194.678 23.4389 195.992 23.9664 197.405 24.0418C198.422 24.092 198.223 23.4138 198.719 23.1375C199.289 22.8109 199.314 23.6901 199.612 23.866C199.86 24.0167 200.132 23.866 200.355 23.9413C200.678 24.0418 200.653 24.6196 200.554 24.8456C200.529 24.921 200.405 24.921 200.405 24.9712V24.9461Z" fill="#01017C"/>
<path d="M184.266 29.6435C184.514 29.945 183.423 30.5981 183.151 30.6483C182.68 30.7488 182.258 30.4725 181.911 30.4725C181.415 30.4725 181.044 30.9749 180.399 30.5478C179.705 30.0957 179.829 29.4677 180.077 28.7895C180.523 27.6591 181.242 26.5538 182.333 25.9509C182.481 25.8755 182.63 25.8756 182.779 25.8002C183.324 25.4736 183.523 24.5944 183.87 24.092C184.043 23.8157 184.861 23.1124 185.159 22.9868C185.63 22.7858 186.745 22.8109 186.572 23.5645C186.423 24.2679 185.233 23.6399 184.762 24.4437C184.266 25.3229 184.043 27.433 183.771 28.5131C183.721 28.7141 183.448 29.0155 183.572 29.2667C183.696 29.5682 184.242 29.5933 184.266 29.6435ZM182.035 29.1914C182.308 28.8397 182.556 28.5131 182.705 28.0861C182.754 27.9354 182.952 27.1567 182.878 27.0562C182.829 26.9557 182.432 26.9055 182.333 26.9557C182.234 27.1315 181.911 27.3325 181.812 27.4832C181.614 27.7847 181.192 28.9151 181.242 29.2667C181.267 29.4426 181.49 29.6938 181.663 29.6435C181.688 29.6435 181.961 29.2667 182.035 29.1914Z" fill="#01017C"/>
<path d="M173.954 30.3469C173.706 30.573 173.111 30.7488 172.764 30.7237C172.466 30.7237 172.045 30.4725 171.797 30.4976C171.301 30.5227 171.202 30.9749 170.408 30.6986C169.962 30.5227 169.937 29.5682 169.987 29.1662C170.012 28.8648 170.483 27.4581 170.656 27.2571C170.731 27.1818 170.855 27.2069 170.954 27.1315C171.028 27.0813 171.078 26.9306 171.152 26.8552C171.499 26.5538 172.045 26.0765 172.466 25.9509C172.689 25.8755 173.631 25.7248 173.854 25.7248C174.35 25.7248 174.276 26.0514 174.226 26.4784C174.177 26.8803 173.954 27.2069 173.83 27.5837C173.73 27.86 173.532 28.8397 173.532 29.0909C173.532 29.4677 174.4 29.3672 174.226 29.9198C174.226 29.945 173.954 30.3469 173.929 30.372L173.954 30.3469ZM171.921 29.1914C172.392 28.7141 172.466 28.061 172.764 27.4832C172.764 26.6794 171.871 27.3827 171.623 27.7344C171.474 27.9605 171.152 28.9904 171.202 29.2416C171.301 29.744 171.673 29.4426 171.921 29.2165V29.1914Z" fill="#01017C"/>
<path d="M177.499 30.5227C177.375 30.3469 177.474 29.9198 177.424 29.744C177.424 29.6938 177.3 29.6938 177.3 29.6686C177.3 29.5179 177.449 29.4677 177.474 29.4174C177.647 29.0658 178.019 27.8851 178.019 27.5083C178.019 27.2823 177.895 26.9808 177.647 27.0562C177.548 27.0813 177.548 27.232 177.449 27.2823C177.028 27.6339 176.78 28.061 176.631 28.6136C176.507 29.0155 176.408 30.1962 176.234 30.4222C176.135 30.5227 176.036 30.573 175.887 30.6232C175.292 30.7488 175.119 30.5478 175.168 29.9701C175.218 29.2918 175.639 28.5131 175.714 27.8098C175.714 27.3325 175.119 27.1315 175.193 26.7296C175.243 26.4282 175.962 26.0765 176.234 26.0263C176.656 25.9509 177.251 26.4533 177.523 26.4282C177.771 26.4282 177.97 26.0765 178.267 25.976C179.333 25.5992 179.556 26.5287 179.283 27.3827C179.16 27.8349 178.689 28.7141 178.738 29.116C178.788 29.4677 179.358 29.6686 179.308 29.8194C179.308 29.8194 179.11 30.2213 179.085 30.2464C178.812 30.573 177.796 30.8744 177.499 30.4976V30.5227Z" fill="#01017C"/>
<path d="M155.956 28.0359C155.956 28.0359 155.856 28.1866 155.782 28.2619C155.435 28.5634 154.567 28.7141 154.419 29.1662C154.319 29.4174 154.592 29.6435 154.84 29.6435C155.088 29.6435 155.633 29.1411 155.931 29.0658C156.501 28.9402 156.6 29.2918 156.303 29.7189C156.104 29.9952 154.815 30.7739 154.468 30.8242C153.923 30.9246 153.253 30.6232 153.154 30.0203C152.956 28.7141 153.526 26.8301 154.666 26.1016C155.212 25.75 156.352 25.5239 156.674 26.2775C157.071 27.2069 156.551 27.5335 155.956 28.0359ZM155.088 26.9306C154.518 26.9808 154.84 27.9354 155.261 27.5837C155.534 27.3576 155.385 26.9055 155.088 26.9306Z" fill="#279801"/>
<path d="M190.489 27.7595C190.439 27.9856 190.365 28.3122 190.315 28.5885C190.266 28.8648 190.018 29.4174 190.018 29.6184C190.018 30.0454 190.737 30.2464 190.737 30.4725C190.737 30.6483 190.315 30.799 190.167 30.799C189.72 30.8493 188.282 30.8493 187.836 30.799C187.638 30.7739 187.44 30.5478 187.539 30.372C187.613 30.2464 188.158 30.0957 188.307 29.9952C189.026 29.543 189.076 28.1866 189.274 27.4832C189.472 26.7799 189.819 26.0765 189.72 25.2978C189.646 24.8456 189.051 24.2176 189.819 24.1172C190.315 24.0418 191.109 23.9916 191.604 23.9916C192.199 23.9916 192.199 24.293 191.902 24.72C191.654 25.0717 191.356 25.1722 191.133 25.6243C190.811 26.2523 190.638 27.1064 190.489 27.7847V27.7595Z" fill="#01017C"/>
<path d="M170.384 26.5538C170.21 26.7547 169.69 26.9055 169.491 27.0562C168.326 27.8349 168.326 28.9653 168.004 30.2464C167.756 30.4474 167.731 30.5981 167.384 30.6483C166.492 30.7739 166.987 29.4928 167.136 28.9904C167.26 28.5634 167.756 27.7344 167.434 27.3576C167.26 27.1567 166.541 27.2069 166.987 26.5789C167.26 26.177 167.88 26.0263 168.326 26.0011C168.549 26.0011 168.946 26.1267 169.144 26.1267C169.466 26.1016 170.086 25.6243 170.334 25.6495C170.706 25.6997 170.607 26.3026 170.408 26.5287L170.384 26.5538Z" fill="#01017C"/>
</svg>
